PathFileType	4	(x/y/z)	S01_P20_T24
DataRate	CameraRate	NumFrames	NumMarkers	Units	OrigDataRate	OrigDataStartFrame	OrigNumFrames
240	240	7	51	mm	240	351	400
Frame#	Time	Sternum			R.Acromium			L.Acromium			Top.Head			R.ASIS			L.ASIS			R.PSIS			L.PSIS			R.Great.Tro			L.Great.Tro			R.Iliac.Crest			L.Iliac.Crest			V.Sacral			R.Thigh.Upper.Post			R.Thigh.Lower.Ant			R.Thigh.Lower.Post			R.Thigh.Upper.Ant			R.Knee.Lat			R.Knee.Med			R.Shank.Upper.Post			R.Shank.Lower.Ant			R.Shank.Lower.Post			R.Shank.Upper.Ant			R.Ankle.Lat			R.Ankle.Med			R.Heel.Upper			R.Heel.Med			R.Heel.Lat			R.Toe.Lat			R.Toe.Med			R.Toe.Tip			L.Thigh.Upper.Post			L.Thigh.Lower.Ant			L.Thigh.Lower.Post			L.Thigh.Upper.Ant			L.Knee.Lat			L.Knee.Med			L.Shank.Upper.Post			L.Shank.Lower.Ant			L.Shank.Lower.Post			L.Shank.Upper.Ant			L.Ankle.Lat			L.Ankle.Med			L.Heel.Upper			L.Heel.Med			L.Heel.Lat			L.Toe.Lat			L.Toe.Med			L.Toe.Tip			Cervical.Spine			Back			
		X1	Y1	Z1	X2	Y2	Z2	X3	Y3	Z3	X4	Y4	Z4	X5	Y5	Z5	X6	Y6	Z6	X7	Y7	Z7	X8	Y8	Z8	X9	Y9	Z9	X10	Y10	Z10	X11	Y11	Z11	X12	Y12	Z12	X13	Y13	Z13	X14	Y14	Z14	X15	Y15	Z15	X16	Y16	Z16	X17	Y17	Z17	X18	Y18	Z18	X19	Y19	Z19	X20	Y20	Z20	X21	Y21	Z21	X22	Y22	Z22	X23	Y23	Z23	X24	Y24	Z24	X25	Y25	Z25	X26	Y26	Z26	X27	Y27	Z27	X28	Y28	Z28	X29	Y29	Z29	X30	Y30	Z30	X31	Y31	Z31	X32	Y32	Z32	X33	Y33	Z33	X34	Y34	Z34	X35	Y35	Z35	X36	Y36	Z36	X37	Y37	Z37	X38	Y38	Z38	X39	Y39	Z39	X40	Y40	Z40	X41	Y41	Z41	X42	Y42	Z42	X43	Y43	Z43	X44	Y44	Z44	X45	Y45	Z45	X46	Y46	Z46	X47	Y47	Z47	X48	Y48	Z48	X49	Y49	Z49	X50	Y50	Z50	X51	Y51	Z51	

351	1.4583	623.01	1246.3	288.77	496.83	1500	466.3	482.18	1511.3	131.76	508.52	1826.7	295.07	575.77	1001.2	439.14	578.3	987.97	172.54	339.32	1039.9	346.84	337.1	1038.2	242.65	505.08	953.44	523.13	468.08	941.14	94.714	485.18	1096.2	505.58	470.84	1071.4	96.984	325.48	1002.2	293.03	605.84	662.9	494.41	696.55	624.3	463.15	641.22	583.35	472.23	664.43	706.17	487.41	687.12	535.3	463.4	679.9	537.99	320.92	652.44	371.66	485.41	716.43	294.64	438.84	653.09	301.69	473.83	712.46	366.05	456.95	664.65	102.92	436.48	695.73	109.18	343.63	599.21	68.233	375.46	615.95	39.545	347.23	609.11	38.896	411.25	796.83	41.583	473.64	831.79	52.598	353.04	891.06	76.221	410.12	402.94	667.85	113.32	478.37	588.93	97.149	405.22	577.27	124.47	469.03	683.78	88.033	434.21	488.52	103.03	478.31	476.49	241.94	320.26	400.1	89.628	323.38	291.3	110.12	278.33	334.97	94.175	365.92	355.22	99.739	148.44	162.62	134.1	182.86	159.41	227.35	72.783	158.11	184.4	75.15	130.9	217.32	69.768	131.7	155.2	249.35	44.843	102.95	282.71	47.097	223.75	342.02	43.497	168.83	402.9	1563.1	300.62	320.67	1249.2	312.27
352	1.4625	628.47	1245.9	289.39	502.54	1499.3	467.4	487.02	1510.8	132.77	514.03	1826.1	296.13	581.66	1000.8	439.59	583.75	987.56	173.09	344.92	1039.1	347.43	342.65	1037.2	243.22	511.12	952.94	523.6	473.88	940.25	95.131	491.31	1095.5	506.34	476.42	1071	97.622	331.17	1001.2	293.72	611.94	662.41	494.43	702.55	623.73	462.99	647.19	582.83	472.15	670.59	705.59	487.48	693.1	534.67	463.09	685.28	537.57	320.74	657.1	371.3	485.29	720	293.65	438.3	656.97	301.34	473.76	716.87	365.09	456.45	665.61	102.71	436.2	696.6	108.46	343.23	599.63	68.67	375.37	616.02	39.744	347.15	609.23	39.255	411.18	797.19	40.413	473.45	832.19	50.476	352.65	891.84	73.493	409.64	411.06	666.35	113.3	487.02	588.16	96.102	414.22	575.76	124.09	476.75	682.94	87.555	443.87	487.7	101.91	489.14	475.14	240.6	329.13	401.35	88.922	330.38	292.53	109.48	286.06	337.01	93.732	374	355.67	98.886	153.39	167.19	134.04	188.07	163.28	227.16	78.05	165.18	184.76	79.702	138.13	217.78	74.05	138.81	155.68	250.08	46.257	103.02	283.69	47.831	223.78	342.5	42.739	168.64	408.18	1562.6	302	325.95	1248.4	313.52
353	1.4667	633.91	1245.5	290	508.24	1498.7	468.48	491.85	1510.4	133.78	519.52	1825.7	297.21	587.51	1000.4	440.06	589.15	987.21	173.65	350.5	1038.5	348	348.17	1036.2	243.77	517.08	952.57	524.07	479.65	939.42	95.534	497.39	1095	507.06	481.98	1070.7	98.264	336.82	1000.4	294.39	617.95	661.98	494.49	708.46	623.22	462.86	653.07	582.38	472.09	676.67	705.08	487.57	698.97	534.09	462.81	690.63	537.23	320.57	661.61	371	485.2	723.43	292.72	437.79	660.72	301.06	473.71	721.15	364.19	455.99	666.45	102.55	435.95	697.35	107.83	342.86	599.98	69.09	375.29	616.04	39.955	347.08	609.29	39.602	411.12	797.47	39.408	473.28	832.51	48.573	352.29	892.5	71.027	409.2	419.33	664.89	113.22	495.85	587.47	95.018	423.4	574.31	123.66	484.61	682.17	87.028	453.78	486.97	100.76	500.27	473.9	239.25	338.31	402.72	88.199	337.69	293.89	108.84	294.11	339.19	93.282	382.37	356.23	98.035	158.71	171.98	133.97	193.64	167.31	226.98	83.766	172.54	185.13	84.676	145.64	218.25	78.746	146.23	156.17	250.98	47.886	103.11	284.88	48.689	223.8	343.11	41.971	168.42	413.46	1562.1	303.38	331.21	1247.7	314.75
354	1.4708	639.31	1245.3	290.59	513.94	1498.1	469.54	496.67	1510.2	134.8	524.98	1825.3	298.3	593.3	1000.2	440.53	594.49	986.93	174.22	356.03	1037.9	348.53	353.65	1035.2	244.29	522.98	952.32	524.53	485.37	938.65	95.926	503.42	1094.6	507.73	487.53	1070.5	98.907	342.42	999.57	295.03	623.86	661.62	494.57	714.27	622.76	462.76	658.84	581.99	472.06	682.64	704.62	487.68	704.7	533.55	462.56	695.92	536.94	320.43	665.97	370.75	485.14	726.71	291.85	437.32	664.31	300.82	473.7	725.28	363.35	455.58	667.18	102.45	435.71	697.98	107.3	342.51	600.25	69.485	375.24	616.02	40.17	347.02	609.31	39.929	411.07	797.69	38.557	473.15	832.76	46.888	351.96	893.05	68.825	408.82	427.72	663.47	113.09	504.83	586.87	93.907	432.76	572.9	123.19	492.58	681.47	86.459	463.94	486.34	99.586	511.65	472.79	237.89	347.8	404.19	87.468	345.3	295.39	108.2	302.49	341.49	92.832	391.02	356.91	97.198	164.4	176.96	133.92	199.57	171.49	226.8	89.929	180.14	185.52	90.078	153.4	218.74	83.863	153.93	156.68	252.09	49.747	103.2	286.29	49.681	223.8	343.87	41.208	168.17	418.73	1561.7	304.75	336.44	1247.2	315.97
355	1.475	644.66	1245.1	291.16	519.64	1497.7	470.57	501.48	1510	135.81	530.4	1825	299.39	599.05	1000.1	441	599.79	986.7	174.79	361.53	1037.5	349.03	359.09	1034.4	244.78	528.81	952.19	524.97	491.04	937.94	96.305	509.38	1094.4	508.36	493.04	1070.5	99.55	347.96	998.9	295.65	629.64	661.3	494.67	719.95	622.33	462.69	664.47	581.64	472.04	688.51	704.2	487.82	710.28	533.04	462.34	701.14	536.69	320.3	670.16	370.54	485.1	729.84	291.04	436.9	667.75	300.63	473.7	729.24	362.55	455.21	667.8	102.38	435.49	698.52	106.84	342.19	600.46	69.85	375.2	615.97	40.381	346.97	609.3	40.232	411.03	797.85	37.849	473.04	832.94	45.417	351.68	893.5	66.883	408.48	436.23	662.11	112.92	513.95	586.37	92.78	442.27	571.57	122.68	500.65	680.85	85.853	474.31	485.82	98.403	523.27	471.83	236.54	357.57	405.76	86.74	353.21	297.02	107.59	311.16	343.91	92.392	399.94	357.7	96.383	170.46	182.12	133.87	205.85	175.8	226.65	96.531	187.94	185.95	95.907	161.36	219.26	89.402	161.86	157.23	253.44	51.85	103.31	287.96	50.815	223.77	344.81	40.47	167.89	424	1561.4	306.11	341.65	1246.7	317.18
356	1.4792	649.98	1244.9	291.71	525.33	1497.3	471.57	506.29	1510	136.82	535.8	1824.8	300.5	604.75	1000.1	441.48	605.03	986.53	175.35	366.99	1037.1	349.5	364.49	1033.7	245.25	534.58	952.16	525.39	496.64	937.31	96.673	515.27	1094.3	508.94	498.5	1070.5	100.19	353.46	998.34	296.24	635.29	661.03	494.8	725.49	621.92	462.65	669.95	581.33	472.05	694.25	703.8	487.97	715.66	532.54	462.15	706.26	536.46	320.21	674.16	370.36	485.08	732.81	290.27	436.53	671.01	300.48	473.72	733.03	361.79	454.9	668.35	102.35	435.29	698.96	106.46	341.9	600.63	70.181	375.17	615.91	40.583	346.93	609.27	40.505	411	797.97	37.27	472.95	833.08	44.15	351.43	893.86	65.192	408.19	444.85	660.81	112.7	523.2	585.97	91.649	451.92	570.32	122.16	508.8	680.32	85.22	484.88	485.42	97.222	535.09	471.03	235.22	367.6	407.44	86.024	361.38	298.78	107.01	320.12	346.43	91.969	409.11	358.61	95.602	176.86	187.44	133.86	212.48	180.24	226.52	103.56	195.89	186.42	102.16	169.47	219.82	95.359	169.99	157.8	255.06	54.204	103.42	289.94	52.101	223.71	345.97	39.78	167.56	429.26	1561.2	307.44	346.86	1246.4	318.36
357	1.4833	655.25	1244.9	292.23	531.01	1497.1	472.54	511.09	1510	137.83	541.17	1824.6	301.61	610.41	1000.1	441.94	610.22	986.42	175.9	372.42	1036.9	349.96	369.84	1033.1	245.7	540.29	952.24	525.8	502.19	936.75	97.03	521.09	1094.2	509.47	503.91	1070.6	100.83	358.91	997.88	296.82	640.8	660.79	494.94	730.87	621.5	462.64	675.24	581.03	472.07	699.86	703.42	488.14	720.84	532.04	462	711.25	536.22	320.14	677.95	370.19	485.07	735.62	289.55	436.21	674.08	300.34	473.75	736.63	361.06	454.64	668.81	102.34	435.11	699.33	106.13	341.64	600.75	70.475	375.15	615.83	40.771	346.9	609.23	40.747	410.98	798.05	36.806	472.89	833.17	43.077	351.21	894.15	63.741	407.94	453.54	659.6	112.47	532.54	585.69	90.524	461.69	569.16	121.62	517.02	679.89	84.568	495.62	485.14	96.055	547.07	470.41	233.94	377.86	409.22	85.332	369.82	300.66	106.47	329.35	349.07	91.573	418.52	359.64	94.865	183.62	192.9	133.88	219.43	184.77	226.42	111	203.96	186.93	108.83	177.69	220.41	101.73	178.26	158.42	256.98	56.814	103.54	292.24	53.544	223.63	347.37	39.165	167.19	434.51	1561	308.76	352.06	1246.2	319.52
